<svg width="625" height="400" viewBox="0 0 625 400" fill="none" xmlns="http://www.w3.org/2000/svg">
<rect x="0.5" y="0.5" width="399" height="99" fill="white" stroke="black"/>
<path d="M73.2074 42.7713H78.9247V59H81.1264V42.7713H86.8438V40.8182H73.2074V42.7713ZM89.9577 59H92.0528V45.3636H89.9577V59ZM91.023 43.0909C91.8398 43.0909 92.5145 42.4517 92.5145 41.6705C92.5145 40.8892 91.8398 40.25 91.023 40.25C90.2062 40.25 89.5315 40.8892 89.5315 41.6705C89.5315 42.4517 90.2062 43.0909 91.023 43.0909ZM95.8903 59H97.9854V50.4773C97.9854 48.4798 99.4414 47.0682 101.075 47.0682C102.664 47.0682 103.774 48.1069 103.774 49.6605V59H105.904V50.1222C105.904 48.3643 107.005 47.0682 108.923 47.0682C110.414 47.0682 111.693 47.8583 111.693 49.8736V59H113.788V49.8736C113.788 46.6687 112.066 45.1861 109.633 45.1861C107.68 45.1861 106.251 46.0827 105.549 47.4943H105.407C104.733 46.0384 103.543 45.1861 101.75 45.1861C99.9741 45.1861 98.6602 46.0384 98.092 47.4943H97.9144V45.3636H95.8903V59ZM123.336 59.2841C126.106 59.2841 128.13 57.8991 128.769 55.8395L126.745 55.2713C126.213 56.6918 124.979 57.402 123.336 57.402C120.877 57.402 119.181 55.8129 119.084 52.892H128.982V52.0043C128.982 46.9261 125.964 45.1861 123.123 45.1861C119.43 45.1861 116.98 48.098 116.98 52.2884C116.98 56.4787 119.394 59.2841 123.336 59.2841ZM119.084 51.081C119.226 48.9592 120.726 47.0682 123.123 47.0682C125.396 47.0682 126.852 48.7727 126.852 51.081H119.084ZM145.131 45.3636H142.219V42.0966H140.124V45.3636H138.064V47.1392H140.124V55.6619C140.124 58.0412 142.042 59.1776 143.817 59.1776C144.599 59.1776 145.096 59.0355 145.38 58.929L144.954 57.0469C144.776 57.0824 144.492 57.1534 144.03 57.1534C143.107 57.1534 142.219 56.8693 142.219 55.0938V47.1392H145.131V45.3636ZM153.676 59.2841C157.369 59.2841 159.855 56.4787 159.855 52.2528C159.855 47.9915 157.369 45.1861 153.676 45.1861C149.983 45.1861 147.497 47.9915 147.497 52.2528C147.497 56.4787 149.983 59.2841 153.676 59.2841ZM153.676 57.402C150.871 57.402 149.592 54.9872 149.592 52.2528C149.592 49.5185 150.871 47.0682 153.676 47.0682C156.482 47.0682 157.76 49.5185 157.76 52.2528C157.76 54.9872 156.482 57.402 153.676 57.402ZM171.114 59L172.943 53.8509H180.294L182.123 59H184.431L177.755 40.8182H175.482L168.806 59H171.114ZM173.636 51.8977L176.548 43.6946H176.69L179.602 51.8977H173.636ZM192.519 59.2841C195.537 59.2841 197.526 57.4375 197.881 55.0227H195.786C195.395 56.5142 194.152 57.402 192.519 57.402C190.033 57.402 188.435 55.3423 188.435 52.1818C188.435 49.0923 190.069 47.0682 192.519 47.0682C194.366 47.0682 195.466 48.2045 195.786 49.4474H197.881C197.526 46.8906 195.36 45.1861 192.483 45.1861C188.79 45.1861 186.34 48.098 186.34 52.2528C186.34 56.3366 188.684 59.2841 192.519 59.2841ZM200.944 59H203.039V53.8952L204.504 52.5369L209.609 59H212.272L206.084 51.1875L211.846 45.3636H209.254L203.288 51.4361H203.039V40.8182H200.944V59ZM216.638 50.7969C216.638 48.4176 218.112 47.0682 220.118 47.0682C222.062 47.0682 223.243 48.3377 223.243 50.4773V59H225.338V50.3352C225.338 46.8551 223.483 45.1861 220.722 45.1861C218.662 45.1861 217.384 46.1094 216.744 47.4943H216.567V45.3636H214.543V59H216.638V50.7969ZM234.706 59.2841C238.4 59.2841 240.885 56.4787 240.885 52.2528C240.885 47.9915 238.4 45.1861 234.706 45.1861C231.013 45.1861 228.527 47.9915 228.527 52.2528C228.527 56.4787 231.013 59.2841 234.706 59.2841ZM234.706 57.402C231.901 57.402 230.623 54.9872 230.623 52.2528C230.623 49.5185 231.901 47.0682 234.706 47.0682C237.512 47.0682 238.79 49.5185 238.79 52.2528C238.79 54.9872 237.512 57.402 234.706 57.402ZM246.709 59H248.769L251.752 48.5241H251.965L254.948 59H257.008L261.162 45.3636H258.961L256.013 55.7685H255.871L252.995 45.3636H250.758L247.846 55.804H247.704L244.756 45.3636H242.554L246.709 59ZM266.027 40.8182H263.932V59H266.027V40.8182ZM275.582 59.2841C278.352 59.2841 280.376 57.8991 281.015 55.8395L278.991 55.2713C278.459 56.6918 277.225 57.402 275.582 57.402C273.123 57.402 271.427 55.8129 271.33 52.892H281.229V52.0043C281.229 46.9261 278.21 45.1861 275.369 45.1861C271.676 45.1861 269.226 48.098 269.226 52.2884C269.226 56.4787 271.64 59.2841 275.582 59.2841ZM271.33 51.081C271.472 48.9592 272.972 47.0682 275.369 47.0682C277.642 47.0682 279.098 48.7727 279.098 51.081H271.33ZM289.565 59.2841C292.193 59.2841 293.08 57.6506 293.542 56.9048H293.791V59H295.815V40.8182H293.72V47.5298H293.542C293.08 46.8196 292.264 45.1861 289.6 45.1861C286.156 45.1861 283.776 47.9205 283.776 52.2173C283.776 56.5497 286.156 59.2841 289.565 59.2841ZM289.849 57.402C287.221 57.402 285.872 55.0938 285.872 52.1818C285.872 49.3054 287.186 47.0682 289.849 47.0682C292.406 47.0682 293.755 49.1278 293.755 52.1818C293.755 55.2713 292.37 57.402 289.849 57.402ZM305.447 64.3977C308.714 64.3977 311.342 62.9062 311.342 59.3906V45.3636H309.318V47.5298H309.105C308.643 46.8196 307.791 45.1861 305.128 45.1861C301.683 45.1861 299.304 47.9205 299.304 52.1108C299.304 56.3722 301.79 58.7869 305.092 58.7869C307.756 58.7869 308.608 57.2244 309.069 56.4787H309.247V59.2486C309.247 61.5213 307.649 62.5511 305.447 62.5511C302.97 62.5511 302.1 61.2461 301.541 60.4915L299.872 61.6634C300.724 63.0927 302.402 64.3977 305.447 64.3977ZM305.376 56.9048C302.748 56.9048 301.399 54.9162 301.399 52.0753C301.399 49.3054 302.713 47.0682 305.376 47.0682C307.933 47.0682 309.282 49.1278 309.282 52.0753C309.282 55.0938 307.898 56.9048 305.376 56.9048ZM320.895 59.2841C323.665 59.2841 325.689 57.8991 326.328 55.8395L324.304 55.2713C323.771 56.6918 322.537 57.402 320.895 57.402C318.436 57.402 316.74 55.8129 316.642 52.892H326.541V52.0043C326.541 46.9261 323.523 45.1861 320.682 45.1861C316.988 45.1861 314.538 48.098 314.538 52.2884C314.538 56.4787 316.953 59.2841 320.895 59.2841ZM316.642 51.081C316.784 48.9592 318.285 47.0682 320.682 47.0682C322.954 47.0682 324.41 48.7727 324.41 51.081H316.642Z" fill="black"/>
<rect x="225.5" y="300.5" width="399" height="99" fill="white" stroke="black"/>
<path d="M313.207 342.771H318.925V359H321.126V342.771H326.844V340.818H313.207V342.771ZM329.958 359H332.053V345.364H329.958V359ZM331.023 343.091C331.84 343.091 332.514 342.452 332.514 341.67C332.514 340.889 331.84 340.25 331.023 340.25C330.206 340.25 329.532 340.889 329.532 341.67C329.532 342.452 330.206 343.091 331.023 343.091ZM335.89 359H337.985V350.477C337.985 348.48 339.441 347.068 341.075 347.068C342.664 347.068 343.774 348.107 343.774 349.661V359H345.904V350.122C345.904 348.364 347.005 347.068 348.923 347.068C350.414 347.068 351.693 347.858 351.693 349.874V359H353.788V349.874C353.788 346.669 352.066 345.186 349.633 345.186C347.68 345.186 346.251 346.083 345.549 347.494H345.407C344.733 346.038 343.543 345.186 341.75 345.186C339.974 345.186 338.66 346.038 338.092 347.494H337.914V345.364H335.89V359ZM363.336 359.284C366.106 359.284 368.13 357.899 368.769 355.839L366.745 355.271C366.213 356.692 364.979 357.402 363.336 357.402C360.877 357.402 359.181 355.813 359.084 352.892H368.982V352.004C368.982 346.926 365.964 345.186 363.123 345.186C359.43 345.186 356.98 348.098 356.98 352.288C356.98 356.479 359.394 359.284 363.336 359.284ZM359.084 351.081C359.226 348.959 360.726 347.068 363.123 347.068C365.396 347.068 366.852 348.773 366.852 351.081H359.084ZM385.131 345.364H382.219V342.097H380.124V345.364H378.064V347.139H380.124V355.662C380.124 358.041 382.042 359.178 383.817 359.178C384.599 359.178 385.096 359.036 385.38 358.929L384.954 357.047C384.776 357.082 384.492 357.153 384.03 357.153C383.107 357.153 382.219 356.869 382.219 355.094V347.139H385.131V345.364ZM393.676 359.284C397.369 359.284 399.855 356.479 399.855 352.253C399.855 347.991 397.369 345.186 393.676 345.186C389.983 345.186 387.497 347.991 387.497 352.253C387.497 356.479 389.983 359.284 393.676 359.284ZM393.676 357.402C390.871 357.402 389.592 354.987 389.592 352.253C389.592 349.518 390.871 347.068 393.676 347.068C396.482 347.068 397.76 349.518 397.76 352.253C397.76 354.987 396.482 357.402 393.676 357.402ZM412.57 340.818H410.369V359H412.57V340.818ZM418.796 350.797C418.796 348.418 420.27 347.068 422.276 347.068C424.22 347.068 425.401 348.338 425.401 350.477V359H427.496V350.335C427.496 346.855 425.641 345.186 422.88 345.186C420.82 345.186 419.542 346.109 418.903 347.494H418.725V345.364H416.701V359H418.796V350.797ZM441.987 345.364H439.714L435.95 356.23H435.808L432.044 345.364H429.771L434.814 359H436.945L441.987 345.364ZM449.982 359.284C452.752 359.284 454.776 357.899 455.415 355.839L453.391 355.271C452.858 356.692 451.624 357.402 449.982 357.402C447.522 357.402 445.827 355.813 445.729 352.892H455.628V352.004C455.628 346.926 452.609 345.186 449.769 345.186C446.075 345.186 443.625 348.098 443.625 352.288C443.625 356.479 446.04 359.284 449.982 359.284ZM445.729 351.081C445.871 348.959 447.372 347.068 449.769 347.068C452.041 347.068 453.497 348.773 453.497 351.081H445.729ZM468.474 348.418C467.817 346.482 466.343 345.186 463.645 345.186C460.768 345.186 458.638 346.82 458.638 349.128C458.638 351.01 459.756 352.271 462.26 352.857L464.532 353.389C465.908 353.709 466.557 354.366 466.557 355.307C466.557 356.479 465.314 357.438 463.361 357.438C461.647 357.438 460.573 356.701 460.2 355.236L458.211 355.733C458.7 358.05 460.608 359.284 463.396 359.284C466.565 359.284 468.723 357.553 468.723 355.2C468.723 353.3 467.533 352.102 465.101 351.507L463.076 351.01C461.461 350.61 460.733 350.069 460.733 349.021C460.733 347.849 461.976 346.997 463.645 346.997C465.473 346.997 466.228 348.009 466.592 348.95L468.474 348.418ZM477.807 345.364H474.895V342.097H472.8V345.364H470.74V347.139H472.8V355.662C472.8 358.041 474.718 359.178 476.493 359.178C477.274 359.178 477.771 359.036 478.056 358.929L477.629 357.047C477.452 357.082 477.168 357.153 476.706 357.153C475.783 357.153 474.895 356.869 474.895 355.094V347.139H477.807V345.364ZM480.959 359H483.054V345.364H480.959V359ZM482.024 343.091C482.841 343.091 483.515 342.452 483.515 341.67C483.515 340.889 482.841 340.25 482.024 340.25C481.207 340.25 480.532 340.889 480.532 341.67C480.532 342.452 481.207 343.091 482.024 343.091ZM492.396 364.398C495.663 364.398 498.29 362.906 498.29 359.391V345.364H496.266V347.53H496.053C495.592 346.82 494.739 345.186 492.076 345.186C488.631 345.186 486.252 347.92 486.252 352.111C486.252 356.372 488.738 358.787 492.04 358.787C494.704 358.787 495.556 357.224 496.018 356.479H496.195V359.249C496.195 361.521 494.597 362.551 492.396 362.551C489.919 362.551 489.049 361.246 488.489 360.491L486.82 361.663C487.672 363.093 489.35 364.398 492.396 364.398ZM492.324 356.905C489.697 356.905 488.347 354.916 488.347 352.075C488.347 349.305 489.661 347.068 492.324 347.068C494.881 347.068 496.231 349.128 496.231 352.075C496.231 355.094 494.846 356.905 492.324 356.905ZM506.138 359.32C508.518 359.32 509.761 358.041 510.187 357.153H510.293V359H512.388V350.016C512.388 345.683 509.086 345.186 507.346 345.186C505.286 345.186 502.942 345.896 501.877 348.382L503.866 349.092C504.327 348.098 505.419 347.033 507.417 347.033C509.343 347.033 510.293 348.054 510.293 349.803V349.874C510.293 350.886 509.263 350.797 506.778 351.116C504.247 351.445 501.486 352.004 501.486 355.129C501.486 357.793 503.546 359.32 506.138 359.32ZM506.458 357.438C504.789 357.438 503.582 356.692 503.582 355.236C503.582 353.638 505.038 353.141 506.671 352.928C507.559 352.821 509.938 352.572 510.293 352.146V354.064C510.293 355.768 508.944 357.438 506.458 357.438ZM522.143 345.364H519.231V342.097H517.136V345.364H515.076V347.139H517.136V355.662C517.136 358.041 519.053 359.178 520.829 359.178C521.61 359.178 522.107 359.036 522.392 358.929L521.965 357.047C521.788 357.082 521.504 357.153 521.042 357.153C520.119 357.153 519.231 356.869 519.231 355.094V347.139H522.143V345.364ZM530.865 359.284C533.635 359.284 535.659 357.899 536.299 355.839L534.275 355.271C533.742 356.692 532.508 357.402 530.865 357.402C528.406 357.402 526.711 355.813 526.613 352.892H536.512V352.004C536.512 346.926 533.493 345.186 530.652 345.186C526.959 345.186 524.509 348.098 524.509 352.288C524.509 356.479 526.924 359.284 530.865 359.284ZM526.613 351.081C526.755 348.959 528.255 347.068 530.652 347.068C532.925 347.068 534.381 348.773 534.381 351.081H526.613Z" fill="black"/>
<rect x="0.5" y="150.5" width="174" height="99" fill="white" stroke="black"/>
<path d="M46.6364 194L48.4652 188.851H55.8161L57.6449 194H59.9532L53.277 175.818H51.0043L44.3282 194H46.6364ZM49.1577 186.898L52.0696 178.695H52.2117L55.1236 186.898H49.1577ZM64.5963 185.797C64.5963 183.418 66.07 182.068 68.0764 182.068C70.0206 182.068 71.2014 183.338 71.2014 185.477V194H73.2966V185.335C73.2966 181.855 71.4411 180.186 68.6801 180.186C66.6204 180.186 65.342 181.109 64.7028 182.494H64.5253V180.364H62.5011V194H64.5963V185.797ZM81.1379 194.32C83.5172 194.32 84.7601 193.041 85.1862 192.153H85.2927V194H87.3879V185.016C87.3879 180.683 84.0854 180.186 82.3453 180.186C80.2856 180.186 77.9419 180.896 76.8766 183.382L78.8652 184.092C79.3268 183.098 80.4188 182.033 82.4163 182.033C84.3428 182.033 85.2927 183.054 85.2927 184.803V184.874C85.2927 185.886 84.2629 185.797 81.7771 186.116C79.2469 186.445 76.4859 187.004 76.4859 190.129C76.4859 192.793 78.5456 194.32 81.1379 194.32ZM81.4575 192.438C79.7885 192.438 78.5811 191.692 78.5811 190.236C78.5811 188.638 80.0371 188.141 81.6706 187.928C82.5584 187.821 84.9376 187.572 85.2927 187.146V189.064C85.2927 190.768 83.9433 192.438 81.4575 192.438ZM93.3072 175.818H91.212V194H93.3072V175.818ZM98.4941 199.114C100.385 199.114 101.717 198.11 102.507 195.989L108.313 180.399L106.023 180.364L102.258 191.23H102.116L98.3521 180.364H96.0793L101.122 194.071L100.731 195.136C99.9678 197.214 99.0268 197.409 97.4998 197.018L96.9671 198.865C97.1802 198.972 97.7839 199.114 98.4941 199.114ZM120.744 183.418C120.087 181.482 118.614 180.186 115.915 180.186C113.038 180.186 110.908 181.82 110.908 184.128C110.908 186.01 112.026 187.271 114.53 187.857L116.802 188.389C118.178 188.709 118.827 189.366 118.827 190.307C118.827 191.479 117.584 192.438 115.631 192.438C113.917 192.438 112.843 191.701 112.47 190.236L110.481 190.733C110.97 193.05 112.878 194.284 115.666 194.284C118.835 194.284 120.993 192.553 120.993 190.2C120.993 188.3 119.803 187.102 117.371 186.507L115.346 186.01C113.731 185.61 113.003 185.069 113.003 184.021C113.003 182.849 114.246 181.997 115.915 181.997C117.743 181.997 118.498 183.009 118.862 183.95L120.744 183.418ZM130.077 180.364H127.165V177.097H125.07V180.364H123.01V182.139H125.07V190.662C125.07 193.041 126.988 194.178 128.763 194.178C129.544 194.178 130.042 194.036 130.326 193.929L129.899 192.047C129.722 192.082 129.438 192.153 128.976 192.153C128.053 192.153 127.165 191.869 127.165 190.094V182.139H130.077V180.364ZM36.0041 224L37.8329 218.851H45.1838L47.0126 224H49.3208L42.6447 205.818H40.372L33.6958 224H36.0041ZM38.5254 216.898L41.4373 208.695H41.5794L44.4913 216.898H38.5254ZM61.5279 213.418C60.8709 211.482 59.3972 210.186 56.6983 210.186C53.8219 210.186 51.6912 211.82 51.6912 214.128C51.6912 216.01 52.8098 217.271 55.3134 217.857L57.5861 218.389C58.9622 218.709 59.6103 219.366 59.6103 220.307C59.6103 221.479 58.3674 222.438 56.4142 222.438C54.7008 222.438 53.6266 221.701 53.2537 220.236L51.2651 220.733C51.7534 223.05 53.6621 224.284 56.4498 224.284C59.6191 224.284 61.7765 222.553 61.7765 220.2C61.7765 218.3 60.5868 217.102 58.1543 216.507L56.1301 216.01C54.5144 215.61 53.7864 215.069 53.7864 214.021C53.7864 212.849 55.0293 211.997 56.6983 211.997C58.5272 211.997 59.2818 213.009 59.6458 213.95L61.5279 213.418ZM74.5894 213.418C73.9324 211.482 72.4587 210.186 69.7599 210.186C66.8834 210.186 64.7528 211.82 64.7528 214.128C64.7528 216.01 65.8714 217.271 68.3749 217.857L70.6476 218.389C72.0237 218.709 72.6718 219.366 72.6718 220.307C72.6718 221.479 71.4289 222.438 69.4758 222.438C67.7623 222.438 66.6881 221.701 66.3153 220.236L64.3266 220.733C64.8149 223.05 66.7236 224.284 69.5113 224.284C72.6807 224.284 74.838 222.553 74.838 220.2C74.838 218.3 73.6483 217.102 71.2158 216.507L69.1917 216.01C67.5759 215.61 66.8479 215.069 66.8479 214.021C66.8479 212.849 68.0908 211.997 69.7599 211.997C71.5887 211.997 72.3433 213.009 72.7073 213.95L74.5894 213.418ZM77.9918 224H80.087V210.364H77.9918V224ZM79.0572 208.091C79.8739 208.091 80.5487 207.452 80.5487 206.67C80.5487 205.889 79.8739 205.25 79.0572 205.25C78.2404 205.25 77.5657 205.889 77.5657 206.67C77.5657 207.452 78.2404 208.091 79.0572 208.091ZM89.4287 229.398C92.6958 229.398 95.3236 227.906 95.3236 224.391V210.364H93.2994V212.53H93.0864C92.6247 211.82 91.7725 210.186 89.1091 210.186C85.6645 210.186 83.2852 212.92 83.2852 217.111C83.2852 221.372 85.771 223.787 89.0736 223.787C91.7369 223.787 92.5892 222.224 93.0509 221.479H93.2284V224.249C93.2284 226.521 91.6304 227.551 89.4287 227.551C86.9518 227.551 86.0818 226.246 85.5225 225.491L83.8534 226.663C84.7057 228.093 86.3836 229.398 89.4287 229.398ZM89.3577 221.905C86.7298 221.905 85.3804 219.916 85.3804 217.075C85.3804 214.305 86.6943 212.068 89.3577 212.068C91.9145 212.068 93.2639 214.128 93.2639 217.075C93.2639 220.094 91.879 221.905 89.3577 221.905ZM101.254 215.797C101.254 213.418 102.728 212.068 104.734 212.068C106.678 212.068 107.859 213.338 107.859 215.477V224H109.954V215.335C109.954 211.855 108.099 210.186 105.338 210.186C103.278 210.186 102 211.109 101.361 212.494H101.183V210.364H99.1588V224H101.254V215.797ZM119.5 224.284C122.27 224.284 124.294 222.899 124.933 220.839L122.909 220.271C122.377 221.692 121.143 222.402 119.5 222.402C117.041 222.402 115.345 220.813 115.248 217.892H125.146V217.004C125.146 211.926 122.128 210.186 119.287 210.186C115.594 210.186 113.144 213.098 113.144 217.288C113.144 221.479 115.558 224.284 119.5 224.284ZM115.248 216.081C115.39 213.959 116.89 212.068 119.287 212.068C121.56 212.068 123.016 213.773 123.016 216.081H115.248ZM133.483 224.284C136.111 224.284 136.998 222.651 137.46 221.905H137.709V224H139.733V205.818H137.638V212.53H137.46C136.998 211.82 136.182 210.186 133.518 210.186C130.074 210.186 127.694 212.92 127.694 217.217C127.694 221.55 130.074 224.284 133.483 224.284ZM133.767 222.402C131.139 222.402 129.79 220.094 129.79 217.182C129.79 214.305 131.104 212.068 133.767 212.068C136.324 212.068 137.673 214.128 137.673 217.182C137.673 220.271 136.288 222.402 133.767 222.402Z" fill="black"/>
<rect x="225.5" y="150.5" width="174" height="99" fill="white" stroke="black"/>
<path d="M272.563 194H274.765V187.359H278.742C282.977 187.359 284.885 184.785 284.885 181.571C284.885 178.357 282.977 175.818 278.706 175.818H272.563V194ZM274.765 185.406V177.771H278.635C281.592 177.771 282.719 179.387 282.719 181.571C282.719 183.755 281.592 185.406 278.671 185.406H274.765ZM288.148 194H290.243V185.371C290.243 183.524 291.699 182.175 293.688 182.175C294.247 182.175 294.824 182.281 294.966 182.317V180.186C294.727 180.168 294.176 180.151 293.865 180.151C292.232 180.151 290.811 181.074 290.314 182.423H290.172V180.364H288.148V194ZM297.45 194H299.545V180.364H297.45V194ZM298.515 178.091C299.332 178.091 300.007 177.452 300.007 176.67C300.007 175.889 299.332 175.25 298.515 175.25C297.698 175.25 297.024 175.889 297.024 176.67C297.024 177.452 297.698 178.091 298.515 178.091ZM308.922 194.284C312.615 194.284 315.101 191.479 315.101 187.253C315.101 182.991 312.615 180.186 308.922 180.186C305.229 180.186 302.743 182.991 302.743 187.253C302.743 191.479 305.229 194.284 308.922 194.284ZM308.922 192.402C306.117 192.402 304.838 189.987 304.838 187.253C304.838 184.518 306.117 182.068 308.922 182.068C311.728 182.068 313.006 184.518 313.006 187.253C313.006 189.987 311.728 192.402 308.922 192.402ZM318.299 194H320.395V185.371C320.395 183.524 321.851 182.175 323.839 182.175C324.399 182.175 324.976 182.281 325.118 182.317V180.186C324.878 180.168 324.328 180.151 324.017 180.151C322.383 180.151 320.963 181.074 320.466 182.423H320.324V180.364H318.299V194ZM327.601 194H329.696V180.364H327.601V194ZM328.667 178.091C329.483 178.091 330.158 177.452 330.158 176.67C330.158 175.889 329.483 175.25 328.667 175.25C327.85 175.25 327.175 175.889 327.175 176.67C327.175 177.452 327.85 178.091 328.667 178.091ZM339.464 180.364H336.552V177.097H334.457V180.364H332.397V182.139H334.457V190.662C334.457 193.041 336.375 194.178 338.15 194.178C338.932 194.178 339.429 194.036 339.713 193.929L339.287 192.047C339.109 192.082 338.825 192.153 338.363 192.153C337.44 192.153 336.552 191.869 336.552 190.094V182.139H339.464V180.364ZM343.965 199.114C345.856 199.114 347.188 198.11 347.978 195.989L353.784 180.399L351.494 180.364L347.729 191.23H347.587L343.823 180.364H341.551L346.593 194.071L346.203 195.136C345.439 197.214 344.498 197.409 342.971 197.018L342.438 198.865C342.651 198.972 343.255 199.114 343.965 199.114ZM293.146 211.5H295.419C294.744 207.984 291.797 205.57 287.962 205.57C283.301 205.57 280.007 209.156 280.007 214.909C280.007 220.662 283.274 224.249 288.104 224.249C292.436 224.249 295.526 221.363 295.526 216.862V214.909H288.601V216.862H293.395C293.333 220.129 291.184 222.189 288.104 222.189C284.73 222.189 282.138 219.632 282.138 214.909C282.138 210.186 284.73 207.629 287.962 207.629C290.589 207.629 292.374 209.112 293.146 211.5ZM299.867 224H301.962V210.364H299.867V224ZM300.932 208.091C301.749 208.091 302.424 207.452 302.424 206.67C302.424 205.889 301.749 205.25 300.932 205.25C300.115 205.25 299.441 205.889 299.441 206.67C299.441 207.452 300.115 208.091 300.932 208.091ZM316.95 210.364H314.677L310.913 221.23H310.771L307.007 210.364H304.734L309.777 224H311.907L316.95 210.364ZM324.945 224.284C327.714 224.284 329.739 222.899 330.378 220.839L328.354 220.271C327.821 221.692 326.587 222.402 324.945 222.402C322.485 222.402 320.79 220.813 320.692 217.892H330.591V217.004C330.591 211.926 327.572 210.186 324.731 210.186C321.038 210.186 318.588 213.098 318.588 217.288C318.588 221.479 321.003 224.284 324.945 224.284ZM320.692 216.081C320.834 213.959 322.334 212.068 324.731 212.068C327.004 212.068 328.46 213.773 328.46 216.081H320.692ZM335.873 215.797C335.873 213.418 337.347 212.068 339.353 212.068C341.297 212.068 342.478 213.338 342.478 215.477V224H344.573V215.335C344.573 211.855 342.718 210.186 339.957 210.186C337.897 210.186 336.619 211.109 335.98 212.494H335.802V210.364H333.778V224H335.873V215.797Z" fill="black"/>
<rect x="450.5" y="150.5" width="174" height="99" fill="white" stroke="black"/>
<path d="M497.289 181.5C496.615 177.771 493.632 175.57 489.974 175.57C485.322 175.57 481.949 179.156 481.949 184.909C481.949 190.662 485.322 194.249 489.974 194.249C493.632 194.249 496.615 192.047 497.289 188.318H495.088C494.555 190.839 492.389 192.189 489.974 192.189C486.672 192.189 484.079 189.632 484.079 184.909C484.079 180.186 486.672 177.629 489.974 177.629C492.389 177.629 494.555 178.979 495.088 181.5H497.289ZM502.658 175.818H500.563V194H502.658V175.818ZM512.036 194.284C515.729 194.284 518.214 191.479 518.214 187.253C518.214 182.991 515.729 180.186 512.036 180.186C508.342 180.186 505.857 182.991 505.857 187.253C505.857 191.479 508.342 194.284 512.036 194.284ZM512.036 192.402C509.23 192.402 507.952 189.987 507.952 187.253C507.952 184.518 509.23 182.068 512.036 182.068C514.841 182.068 516.119 184.518 516.119 187.253C516.119 189.987 514.841 192.402 512.036 192.402ZM531.072 183.418C530.415 181.482 528.941 180.186 526.242 180.186C523.366 180.186 521.235 181.82 521.235 184.128C521.235 186.01 522.354 187.271 524.857 187.857L527.13 188.389C528.506 188.709 529.154 189.366 529.154 190.307C529.154 191.479 527.911 192.438 525.958 192.438C524.245 192.438 523.171 191.701 522.798 190.236L520.809 190.733C521.297 193.05 523.206 194.284 525.994 194.284C529.163 194.284 531.32 192.553 531.32 190.2C531.32 188.3 530.131 187.102 527.698 186.507L525.674 186.01C524.058 185.61 523.33 185.069 523.33 184.021C523.33 182.849 524.573 181.997 526.242 181.997C528.071 181.997 528.826 183.009 529.19 183.95L531.072 183.418ZM543.068 188.425C543.068 190.982 541.115 192.153 539.552 192.153C537.812 192.153 536.569 190.875 536.569 188.886V180.364H534.474V189.028C534.474 192.509 536.321 194.178 538.878 194.178C540.937 194.178 542.287 193.077 542.926 191.692H543.068V194H545.163V180.364H543.068V188.425ZM549.001 194H551.096V185.371C551.096 183.524 552.552 182.175 554.54 182.175C555.1 182.175 555.677 182.281 555.819 182.317V180.186C555.579 180.168 555.029 180.151 554.718 180.151C553.084 180.151 551.664 181.074 551.167 182.423H551.025V180.364H549.001V194ZM563.605 194.284C566.375 194.284 568.399 192.899 569.038 190.839L567.014 190.271C566.481 191.692 565.247 192.402 563.605 192.402C561.146 192.402 559.45 190.813 559.352 187.892H569.251V187.004C569.251 181.926 566.233 180.186 563.392 180.186C559.698 180.186 557.248 183.098 557.248 187.288C557.248 191.479 559.663 194.284 563.605 194.284ZM559.352 186.081C559.494 183.959 560.995 182.068 563.392 182.068C565.664 182.068 567.12 183.773 567.12 186.081H559.352ZM584.619 194.249C586.288 194.249 588.152 193.663 589.333 192.455L590.62 194H593.141L590.629 190.937C591.312 190.058 592.076 188.585 592.076 186.045H590.052C590.052 187.288 589.768 188.389 589.297 189.304L585.347 184.483L586.678 183.489C588.17 182.388 589.093 181.18 589.093 179.44C589.093 177.416 587.424 175.641 584.69 175.641C582.026 175.641 580.286 177.31 580.286 179.76C580.286 181.376 581.165 182.619 582.417 184.128C580.295 185.602 578.83 186.969 578.83 189.17C578.83 192.118 581.032 194.249 584.619 194.249ZM588.081 190.937C587.078 191.878 585.808 192.402 584.547 192.402C582.381 192.402 580.961 190.875 580.961 189.17C580.961 188.673 581.422 187.395 583.056 186.188L583.731 185.69L588.081 190.937ZM584.059 182.92C583.171 181.837 582.417 180.808 582.417 179.795C582.417 178.659 583.376 177.452 584.761 177.452C586.074 177.452 586.962 178.517 586.962 179.44C586.962 180.683 586.288 181.358 585.258 182.033L584.059 182.92ZM500.71 214.909C500.71 209.156 497.336 205.57 492.684 205.57C488.032 205.57 484.658 209.156 484.658 214.909C484.658 220.662 488.032 224.249 492.684 224.249C497.336 224.249 500.71 220.662 500.71 214.909ZM498.579 214.909C498.579 219.632 495.987 222.189 492.684 222.189C489.381 222.189 486.789 219.632 486.789 214.909C486.789 210.186 489.381 207.629 492.684 207.629C495.987 207.629 498.579 210.186 498.579 214.909ZM512.721 218.425C512.721 220.982 510.768 222.153 509.206 222.153C507.466 222.153 506.223 220.875 506.223 218.886V210.364H504.128V219.028C504.128 222.509 505.974 224.178 508.531 224.178C510.591 224.178 511.94 223.077 512.579 221.692H512.721V224H514.816V210.364H512.721V218.425ZM524.584 210.364H521.672V207.097H519.577V210.364H517.518V212.139H519.577V220.662C519.577 223.041 521.495 224.178 523.27 224.178C524.052 224.178 524.549 224.036 524.833 223.929L524.407 222.047C524.229 222.082 523.945 222.153 523.483 222.153C522.56 222.153 521.672 221.869 521.672 220.094V212.139H524.584V210.364ZM533.129 224.284C536.148 224.284 538.136 222.438 538.491 220.023H536.396C536.006 221.514 534.763 222.402 533.129 222.402C530.643 222.402 529.045 220.342 529.045 217.182C529.045 214.092 530.679 212.068 533.129 212.068C534.976 212.068 536.077 213.205 536.396 214.447H538.491C538.136 211.891 535.97 210.186 533.094 210.186C529.401 210.186 526.95 213.098 526.95 217.253C526.95 221.337 529.294 224.284 533.129 224.284ZM547.094 224.284C550.787 224.284 553.273 221.479 553.273 217.253C553.273 212.991 550.787 210.186 547.094 210.186C543.401 210.186 540.915 212.991 540.915 217.253C540.915 221.479 543.401 224.284 547.094 224.284ZM547.094 222.402C544.289 222.402 543.01 219.987 543.01 217.253C543.01 214.518 544.289 212.068 547.094 212.068C549.9 212.068 551.178 214.518 551.178 217.253C551.178 219.987 549.9 222.402 547.094 222.402ZM556.471 224H558.566V215.477C558.566 213.48 560.022 212.068 561.656 212.068C563.245 212.068 564.355 213.107 564.355 214.661V224H566.486V215.122C566.486 213.364 567.586 212.068 569.504 212.068C570.995 212.068 572.274 212.858 572.274 214.874V224H574.369V214.874C574.369 211.669 572.647 210.186 570.214 210.186C568.261 210.186 566.832 211.083 566.13 212.494H565.988C565.314 211.038 564.124 210.186 562.331 210.186C560.555 210.186 559.241 211.038 558.673 212.494H558.495V210.364H556.471V224ZM583.917 224.284C586.687 224.284 588.711 222.899 589.35 220.839L587.326 220.271C586.794 221.692 585.56 222.402 583.917 222.402C581.458 222.402 579.762 220.813 579.665 217.892H589.563V217.004C589.563 211.926 586.545 210.186 583.704 210.186C580.011 210.186 577.561 213.098 577.561 217.288C577.561 221.479 579.975 224.284 583.917 224.284ZM579.665 216.081C579.807 213.959 581.307 212.068 583.704 212.068C585.977 212.068 587.433 213.773 587.433 216.081H579.665Z" fill="black"/>
<path d="M225.707 200.707C226.098 200.317 226.098 199.683 225.707 199.293L219.343 192.929C218.953 192.538 218.319 192.538 217.929 192.929C217.538 193.319 217.538 193.953 217.929 194.343L223.586 200L217.929 205.657C217.538 206.047 217.538 206.681 217.929 207.071C218.319 207.462 218.953 207.462 219.343 207.071L225.707 200.707ZM175 201H225V199H175V201Z" fill="black"/>
<path d="M450.707 200.707C451.098 200.317 451.098 199.683 450.707 199.293L444.343 192.929C443.953 192.538 443.319 192.538 442.929 192.929C442.538 193.319 442.538 193.953 442.929 194.343L448.586 200L442.929 205.657C442.538 206.047 442.538 206.681 442.929 207.071C443.319 207.462 443.953 207.462 444.343 207.071L450.707 200.707ZM400 201H450V199H400V201Z" fill="black"/>
</svg>
